<svg width="24" height="24" viewBox="0 0 24 24" fill="none" xmlns="http://www.w3.org/2000/svg">
<g clip-path="url(#clip0_19_14)">
<path d="M15.88 9.29007L12 13.1701L8.11999 9.29007C8.02741 9.19749 7.9175 9.12405 7.79653 9.07394C7.67557 9.02384 7.54592 8.99805 7.41499 8.99805C7.28406 8.99805 7.15441 9.02384 7.03345 9.07394C6.91248 9.12405 6.80257 9.19749 6.70999 9.29007C6.61741 9.38265 6.54397 9.49256 6.49386 9.61352C6.44376 9.73449 6.41797 9.86414 6.41797 9.99507C6.41797 10.126 6.44376 10.2556 6.49386 10.3766C6.54397 10.4976 6.61741 10.6075 6.70999 10.7001L11.3 15.2901C11.69 15.6801 12.32 15.6801 12.71 15.2901L17.3 10.7001C17.3927 10.6076 17.4662 10.4977 17.5164 10.3767C17.5666 10.2557 17.5924 10.126 17.5924 9.99507C17.5924 9.8641 17.5666 9.73442 17.5164 9.61344C17.4662 9.49247 17.3927 9.38258 17.3 9.29007C16.91 8.91007 16.27 8.90007 15.88 9.29007V9.29007Z" fill="black"/>
</g>
<defs>
<clipPath id="clip0_19_14">
<rect width="24" height="24" fill="white"/>
</clipPath>
</defs>
</svg>
