<svg width="24" height="24" viewBox="0 0 24 24" fill="none" xmlns="http://www.w3.org/2000/svg">
<path fill-rule="evenodd" clip-rule="evenodd" d="M15.7735 4.00012H3.99988C2.89988 4.00012 1.99988 4.90012 1.99988 6.00012V18.0001C1.99988 19.1001 2.89988 20.0001 3.99988 20.0001H19.9999C21.0999 20.0001 21.9999 19.1001 21.9999 18.0001V9.6549C21.6762 9.71732 21.3419 9.75 21 9.75C20.033 9.75 19.127 9.48854 18.3489 9.03245L13.0599 12.3401C12.4099 12.7501 11.5899 12.7501 10.9399 12.3401L4.39988 8.25012C4.29961 8.19383 4.2118 8.11778 4.14177 8.02658C4.07174 7.93537 4.02094 7.8309 3.99245 7.71949C3.96397 7.60809 3.95838 7.49206 3.97603 7.37843C3.99369 7.2648 4.03421 7.15594 4.09516 7.05842C4.1561 6.96091 4.2362 6.87678 4.3306 6.81112C4.42501 6.74546 4.53175 6.69963 4.64437 6.67642C4.757 6.65321 4.87316 6.65309 4.98583 6.67607C5.0985 6.69905 5.20534 6.74466 5.29988 6.81012L11.9999 11.0001L16.9849 7.88265C16.2143 6.96901 15.75 5.78873 15.75 4.5C15.75 4.3314 15.7579 4.16466 15.7735 4.00012Z" fill="black"/>
<circle cx="21" cy="4.5" r="3" fill="black"/>
</svg>
