<svg width="24" height="24" viewBox="0 0 24 24" fill="none" xmlns="http://www.w3.org/2000/svg">
<path d="M17.3062 12.8843H12.8844V17.3061C12.8844 17.5407 12.7912 17.7656 12.6254 17.9314C12.4595 18.0973 12.2346 18.1905 12 18.1905C11.7655 18.1905 11.5406 18.0973 11.3747 17.9314C11.2089 17.7656 11.1157 17.5407 11.1157 17.3061V12.8843H6.69392C6.45938 12.8843 6.23444 12.7912 6.06859 12.6253C5.90274 12.4595 5.80957 12.2345 5.80957 12C5.80957 11.7654 5.90274 11.5405 6.06859 11.3747C6.23444 11.2088 6.45938 11.1156 6.69392 11.1156H11.1157V6.69386C11.1157 6.45932 11.2089 6.23438 11.3747 6.06853C11.5406 5.90268 11.7655 5.80951 12 5.80951C12.2346 5.80951 12.4595 5.90268 12.6254 6.06853C12.7912 6.23438 12.8844 6.45932 12.8844 6.69386V11.1156H17.3062C17.5407 11.1156 17.7657 11.2088 17.9315 11.3747C18.0974 11.5405 18.1905 11.7654 18.1905 12C18.1905 12.2345 18.0974 12.4595 17.9315 12.6253C17.7657 12.7912 17.5407 12.8843 17.3062 12.8843Z" fill="black"/>
<rect x="0.9" y="-0.9" width="18.2" height="18.2" rx="5.1" transform="matrix(1 0 0 -1 2 20.2)" stroke="black" stroke-width="1.8"/>
</svg>
