<svg width="24" height="24" viewBox="0 0 24 24" fill="none" xmlns="http://www.w3.org/2000/svg">
<g clip-path="url(#clip0_19_20)">
<path d="M8.12 11.71L11 8.83V22C11 22.55 11.45 23 12 23C12.55 23 13 22.55 13 22V8.83L15.88 11.71C16.067 11.897 16.3206 12.002 16.585 12.002C16.8494 12.002 17.103 11.897 17.29 11.71C17.477 11.523 17.582 11.2694 17.582 11.005C17.582 10.7406 17.477 10.487 17.29 10.3L12.7 5.71C12.6075 5.6173 12.4976 5.54375 12.3766 5.49357C12.2557 5.44339 12.126 5.41756 11.995 5.41756C11.864 5.41756 11.7343 5.44339 11.6134 5.49357C11.4924 5.54375 11.3825 5.6173 11.29 5.71L6.7 10.3C6.6073 10.3925 6.53375 10.5024 6.48357 10.6234C6.43339 10.7443 6.40756 10.874 6.40756 11.005C6.40756 11.136 6.43339 11.2657 6.48357 11.3866C6.53375 11.5076 6.6073 11.6175 6.7 11.71C7.09 12.09 7.73 12.1 8.12 11.71V11.71ZM7 4H17C17.55 4 18 3.55 18 3C18 2.45 17.55 2 17 2H7C6.45 2 6 2.45 6 3C6 3.55 6.45 4 7 4Z" fill="black"/>
</g>
<defs>
<clipPath id="clip0_19_20">
<rect width="24" height="24" fill="white" transform="matrix(0 -1 1 0 0 24)"/>
</clipPath>
</defs>
</svg>
