<svg width="12" height="12" viewBox="0 0 12 12" fill="none" xmlns="http://www.w3.org/2000/svg">
<path d="M12 6C12 9.31371 9.31371 12 6 12C2.68629 12 0 9.31371 0 6C0 2.68629 2.68629 0 6 0C9.31371 0 12 2.68629 12 6Z" fill="#F3F4F6"/>
<g clip-path="url(#clip0_422_992)">
<path d="M7.94 4.64503L5.99999 6.58503L4.05999 4.64503C4.0137 4.59874 3.95875 4.56202 3.89827 4.53697C3.83778 4.51192 3.77296 4.49902 3.70749 4.49902C3.64203 4.49902 3.57721 4.51192 3.51672 4.53697C3.45624 4.56202 3.40129 4.59874 3.35499 4.64503C3.3087 4.69132 3.27198 4.74628 3.24693 4.80676C3.22188 4.86724 3.20898 4.93207 3.20898 4.99753C3.20898 5.063 3.22188 5.12782 3.24693 5.18831C3.27198 5.24879 3.3087 5.30374 3.35499 5.35003L5.65 7.64503C5.845 7.84003 6.16 7.84003 6.355 7.64503L8.64999 5.35003C8.69635 5.30378 8.73312 5.24883 8.75821 5.18835C8.7833 5.12786 8.79622 5.06302 8.79622 4.99753C8.79622 4.93205 8.7833 4.86721 8.75821 4.80672C8.73312 4.74624 8.69635 4.69129 8.64999 4.64503C8.455 4.45503 8.135 4.45003 7.94 4.64503Z" fill="#4B4B4B"/>
</g>
<defs>
<clipPath id="clip0_422_992">
<rect width="12" height="12" fill="white"/>
</clipPath>
</defs>
</svg>
