<svg width="150" height="150" viewBox="0 0 150 150" fill="none" xmlns="http://www.w3.org/2000/svg">
<path d="M0.104969 0C1.37814 13.6364 1.36459 27.2727 0.104969 40.9091H15.0782C13.5342 27.4026 13.8321 13.7403 15.173 0H0.104969ZM61.6233 0C62.5037 17.5649 63.4856 35.2597 61.7587 53.474H76.7591C75.066 35.7792 75.5062 17.9156 76.8606 0H61.6233ZM99.9537 0C101.511 10.2305 101.173 20.4156 99.8183 30.5195H114.751C113.938 20.3474 113.938 10.1721 114.751 0H99.9537ZM139.402 11.8377C139.402 11.8377 125.383 14.3734 121.286 19.5844C120.202 21.0812 119.288 23.5844 120.27 25.1623C121.32 26.7208 123.893 26.7857 125.62 26.2338C131.817 24.2857 139.402 11.8377 139.402 11.8377ZM41.1714 26.5909C41.1714 26.5909 45.2347 40.4545 50.6862 43.8312C52.2438 44.8377 54.8173 45.3247 56.2056 44.0584C57.5938 42.7922 57.3568 40.1623 56.6796 38.474C54.0385 32.4026 41.1714 26.5909 41.1714 26.5909ZM129.684 28.8312C128.126 28.8636 126.67 29.026 125.451 29.4156C123.318 30.1299 120.677 32.0455 120.778 34.1883C120.812 36.3312 123.555 38.0844 125.79 38.6688C133.781 40.6818 150 33.2792 150 33.2792C150 33.2792 138.081 28.7338 129.684 28.8312ZM99.8183 36.3636C101.918 51.8507 102.222 67.2403 99.886 82.4675H114.717C113.363 67.0779 113.532 51.6883 114.785 36.3636H99.8183ZM122.64 42.5C121.896 42.5325 121.184 42.7597 120.643 43.2468C119.254 44.513 119.491 47.1429 120.169 48.8312C122.81 54.9026 135.677 60.7143 135.677 60.7143C135.677 60.7143 131.614 46.8507 126.162 43.474C125.282 42.9221 124.096 42.5 122.945 42.5H122.64ZM36.2954 46.4935C31.8596 46.5584 28.4397 46.9156 28.4397 46.9156C28.4397 46.9156 42.0856 58.1494 50.3476 58.2143C52.6163 58.1818 55.7654 57.2078 56.3749 55.1623C57.0859 53.1169 55.0881 50.5844 53.1581 49.3507C49.7381 47.1429 43.5416 46.5584 38.2255 46.4935H36.2954ZM0.203164 46.7532C1.69643 60.4221 1.53051 74.0584 0.135444 87.6623H15.1764C13.8558 73.9286 13.5105 60.2597 15.0714 46.7532H0.203164ZM61.6571 57.1429C62.7746 74.0584 62.8423 91.1364 61.6571 108.442H76.7591C75.066 91.0714 75.5062 74.026 76.8606 57.1429H61.6571ZM35.7875 64.4805C35.7875 64.4805 22.9204 70.2922 20.2792 76.3636C19.602 78.052 19.365 80.6818 20.7533 81.9481C22.1416 83.2143 24.715 82.7273 26.2726 81.7208C31.7242 78.3442 35.7875 64.4805 35.7875 64.4805ZM27.1191 87.8896C24.8504 87.9545 22.04 88.8961 21.3966 90.8117C20.6856 92.8247 22.6156 95.3896 24.478 96.6559C31.2163 101.201 49.1286 99.7078 49.1286 99.7078C49.1286 99.7078 35.8214 88.1494 27.5593 87.8896H27.1191ZM99.649 88.3117C100.597 100.162 100.868 112.078 99.7167 124.026H114.582C113.024 111.688 114.006 99.9026 114.785 88.3117H99.649ZM0.0677219 93.5065C1.40861 112.403 0.988736 131.234 0 150H15.3085C14.4653 131.266 13.7644 112.435 15.2137 93.5065H0.0677219ZM23.5637 101.558C22.277 101.591 21.0242 101.981 20.3808 102.955C19.3989 104.513 20.3131 107.045 21.3966 108.539C25.4938 113.734 39.5122 116.266 39.5122 116.266C39.5122 116.266 31.9274 103.831 25.7308 101.883C25.0875 101.688 24.3087 101.558 23.5637 101.558ZM145.361 107.857C145.361 107.857 127.449 109.513 121.692 115.162C120.135 116.721 118.679 119.61 119.796 121.461C120.846 123.344 124.13 123.701 126.399 123.247C134.458 121.558 145.361 107.857 145.361 107.857ZM61.8265 114.286C63.0454 126.201 61.9619 138.279 61.5894 150H76.8945C76.3189 138.377 74.9644 126.494 76.6236 114.286H61.8265ZM123.453 128.896C121.692 128.896 119.695 129.643 119.153 131.136C118.509 132.857 119.965 135.097 121.388 136.331C126.602 140.552 140.824 140.097 140.824 140.097C140.824 140.097 130.632 129.545 124.164 128.929C123.927 128.896 123.69 128.896 123.453 128.896ZM99.7506 129.87C100.462 136.461 100.868 143.182 99.9537 150H114.446C113.498 143.149 113.972 136.429 114.683 129.87H99.7506Z" fill="white"/>
</svg>
